<?xml version="1.0" encoding="utf-8"?>
<!-- Generator: Adobe Illustrator 23.0.1, SVG Export Plug-In . SVG Version: 6.00 Build 0)  -->
<svg version="1.1" id="Layer_1" xmlns="http://www.w3.org/2000/svg" xmlns:xlink="http://www.w3.org/1999/xlink" x="0px" y="0px"
	 viewBox="0 0 72 72" style="enable-background:new 0 0 72 72;" xml:space="preserve">
<style type="text/css">
	.st0{fill:none;stroke:#FFFFFF;stroke-width:4;stroke-linecap:round;stroke-linejoin:round;}
	.st1{fill:#FFFFFF;}
</style>
<g>
	<line class="st0" x1="-75" y1="15.91" x2="-9" y2="15.91"/>
	<line class="st0" x1="-75" y1="36" x2="-9" y2="36"/>
	<line class="st0" x1="-75" y1="56.09" x2="-9" y2="56.09"/>
</g>
<g>
	<path class="st1" d="M11.55,62.49c-0.54,0-1.06-0.21-1.45-0.59c-0.8-0.79-0.8-2.08-0.01-2.88c0,0,0.01-0.01,0.01-0.01L59,10.11
		c0.8-0.8,2.09-0.8,2.89,0c0.8,0.8,0.8,2.09,0,2.89L13,61.9C12.61,62.28,12.09,62.5,11.55,62.49z"/>
	<path class="st1" d="M60.45,62.49c-0.54,0-1.06-0.21-1.45-0.59L10.1,13c-0.8-0.8-0.8-2.09,0-2.89s2.09-0.8,2.89,0l48.9,48.9
		c0.8,0.79,0.8,2.08,0.01,2.88c0,0-0.01,0.01-0.01,0.01C61.51,62.28,60.99,62.5,60.45,62.49z"/>
</g>
</svg>
