<?xml version="1.0" encoding="utf-8"?>
<!-- Generator: Adobe Illustrator 23.0.1, SVG Export Plug-In . SVG Version: 6.00 Build 0)  -->
<svg version="1.1" id="Layer_1" xmlns="http://www.w3.org/2000/svg" xmlns:xlink="http://www.w3.org/1999/xlink" x="0px" y="0px"
	 viewBox="0 0 72 72" style="enable-background:new 0 0 72 72;" xml:space="preserve">
<style type="text/css">
	.st0{fill:none;stroke:#FFFFFF;stroke-width:4;stroke-linecap:round;stroke-linejoin:round;}
	.st1{fill:#010101;}
</style>
<g>
	<line class="st0" x1="3" y1="15.91" x2="69" y2="15.91"/>
	<line class="st0" x1="3" y1="36" x2="69" y2="36"/>
	<line class="st0" x1="3" y1="56.09" x2="69" y2="56.09"/>
</g>
<g>
	<path class="st1" d="M122.33,40.14c-0.6,0-1.17-0.23-1.6-0.65c-0.88-0.88-0.89-2.3-0.01-3.18c0,0,0.01-0.01,0.01-0.01l54-54
		c0.88-0.88,2.31-0.88,3.19,0c0.88,0.88,0.88,2.31,0,3.19l-54,54C123.51,39.91,122.93,40.14,122.33,40.14z"/>
	<path class="st1" d="M176.33,40.14c-0.6,0-1.17-0.23-1.6-0.65l-54-54c-0.88-0.88-0.88-2.31,0-3.19c0.88-0.88,2.31-0.88,3.19,0
		l54,54c0.88,0.88,0.89,2.3,0.01,3.18c0,0-0.01,0.01-0.01,0.01C177.51,39.91,176.93,40.14,176.33,40.14z"/>
</g>
</svg>
